<svg xmlns="http://www.w3.org/2000/svg" xmlns:xlink="http://www.w3.org/1999/xlink" xml:space="preserve" width="442px" height="105px" version="1.1" style="shape-rendering:geometricPrecision; text-rendering:geometricPrecision; image-rendering:optimizeQuality; fill-rule:evenodd; clip-rule:evenodd" viewBox="0 0 12890 3061"><defs><style type="text/css">.fil0 {fill:#1F1F1F}.fil2 {fill:#1F1F1F;fill-rule:nonzero}.fil1 {fill:#FEFEFE;fill-rule:nonzero}</style></defs><g id="Layer_x0020_1"><metadata id="CorelCorpID_0Corel-Layer"/><path class="fil0" d="M1531 0c845 0 1530 685 1530 1531 0 845 -685 1530 -1530 1530 -846 0 -1531 -685 -1531 -1530 0 -846 685 -1531 1531 -1531z"/><path class="fil1" d="M2237 2241l2 26c0 418 -713 380 -713 380 0 0 -711 38 -711 -380l1 -26c170 303 495 311 710 311 215 0 542 -8 711 -311zm-998 -1359c-287 28 -480 83 -579 166 94 -281 308 -501 587 -591 0 0 -14 70 -14 204 0 133 14 220 14 220 0 0 -5 0 -8 1zm950 320c175 349 -43 712 -231 809 -23 12 356 -291 231 -809zm-827 -328c0 0 -15 -66 -15 -213 0 -148 15 -233 15 -233 50 -10 107 -15 164 -15 64 0 115 5 165 15 0 0 14 99 14 233 0 133 -14 213 -14 213 -86 -5 -152 -4 -165 -4 -9 0 -70 -1 -164 4zm444 7c0 0 14 -73 14 -220 0 -148 -14 -204 -14 -204 283 90 495 310 588 591 -99 -83 -293 -138 -580 -166 -3 -1 -6 -1 -8 -1zm-280 1288c-1066 -2 -818 -966 -818 -966 62 -186 810 -190 818 -190 0 0 757 4 819 190 0 0 248 964 -819 966zm990 -882l-58 0c-8 -84 -22 -143 -22 -143 -4 -12 -10 -22 -17 -33 -85 -130 -381 -183 -607 -205 -42 -4 -82 -6 -117 -8 -89 -6 -158 -5 -167 -5l-1 0 -1 0c-9 0 -77 0 -166 5 -35 2 -75 5 -116 9 -227 22 -522 76 -608 206 -7 11 -14 19 -18 31 0 0 -14 59 -23 143l-50 0 0 225 45 0c10 197 68 404 237 568l0 90c140 322 492 356 638 356l61 0 64 0c147 0 504 -34 644 -356l0 -90c169 -164 218 -371 228 -568l54 0 0 -225z"/><path class="fil2" d="M3689 1536l379 252 0 92 -497 0 0 349 761 0c101 0 173 -71 173 -173l0 -318c0 -112 -22 -174 -118 -237l-379 -254 0 -64 429 0 68 -180 0 -171 -759 0c-103 0 -175 71 -175 173l0 294c0 112 22 172 118 237z"/><path id="1" class="fil2" d="M5062 1183l174 0 0 262 -174 0 0 -262zm436 611c104 0 175 -74 175 -176l0 -613c0 -102 -71 -173 -175 -173l-873 0 0 1397 437 0 0 -435 436 0z"/><path id="2" class="fil2" d="M6209 1598l40 -415 48 0 39 415 -127 0zm-300 -766l-196 1224 0 173 436 0 28 -281 191 0 26 281 438 0 0 -173 -196 -1224 -727 0z"/><path id="3" class="fil2" d="M7127 832c-104 0 -175 71 -175 173l0 1051c0 102 71 173 175 173l759 0 0 -349 -497 0 0 -697 429 0 68 -178 0 -173 -759 0z"/><polygon id="4" class="fil2" points="8940,2229 8940,1880 8441,1880 8441,1688 8871,1688 8871,1339 8441,1339 8441,1183 8871,1183 8940,1005 8940,832 8006,832 8006,2229"/><polygon id="5" class="fil2" points="9589,2229 9955,2229 10063,1558 10099,1558 10099,2229 10524,2229 10524,2056 10382,832 9893,832 9787,1383 9757,1383 9651,832 9164,832 9020,2056 9020,2229 9448,2229 9448,1558 9482,1558"/><path id="6" class="fil2" d="M11099 1598l40 -415 48 0 40 415 -128 0zm-299 -766l-196 1224 0 173 435 0 28 -281 192 0 26 281 437 0 0 -173 -195 -1224 -727 0z"/><polygon id="7" class="fil2" points="12509,1479 12305,832 11842,832 11842,2229 12243,2229 12243,2056 12187,1584 12221,1584 12427,2229 12890,2229 12890,832 12487,832 12487,1005 12545,1479"/></g></svg>